<?xml version="1.0" encoding="utf-8"?>
<!DOCTYPE svg PUBLIC "-//W3C//DTD SVG 1.1//EN" "http://www.w3.org/Graphics/SVG/1.1/DTD/svg11.dtd">
<svg version="1.1" id="Layer_1" xmlns="http://www.w3.org/2000/svg" xmlns:xlink="http://www.w3.org/1999/xlink" x="0px" y="0px"
	 width="100px" height="100px" viewBox="0 0 100 100" style="enable-background:new 0 0 100 100;" xml:space="preserve">
<path style="fill:#80CDEA;" d="M100,94c0,3.313-2.687,6-6,6H6c-3.313,0-6-2.687-6-6V6c0-3.313,2.687-6,6-6h88c3.313,0,6,2.687,6,6
	V94z"/>
<g>
	<path style="fill:#004D6A;" d="M85,18.25c0,2.058-0.639,4.023-1.914,5.898c-1.276,1.875-2.865,3.477-4.766,4.805
		c-9.792,6.797-15.886,11.029-18.281,12.695c-0.261,0.183-0.814,0.58-1.66,1.191c-0.847,0.612-1.55,1.107-2.109,1.484
		c-0.561,0.378-1.237,0.801-2.031,1.27c-0.795,0.469-1.543,0.82-2.246,1.055S50.638,47,50.039,47H50h-0.039
		c-0.6,0-1.25-0.117-1.953-0.352s-1.452-0.586-2.246-1.055c-0.795-0.469-1.472-0.892-2.031-1.27
		c-0.561-0.377-1.264-0.872-2.109-1.484c-0.847-0.611-1.4-1.009-1.66-1.191c-2.37-1.666-5.781-4.043-10.234-7.129
		s-7.123-4.941-8.008-5.566c-1.615-1.094-3.139-2.598-4.57-4.512C15.716,22.527,15,20.75,15,19.109C15,17.078,15,12,15,12
		s4.244,0,6.25,0h57.5c1.692,0,6.25,0,6.25,0S85,16.531,85,18.25z M85,29.734V51.75c0,1.719,0,6.25,0,6.25s-4.531,0-6.25,0h-57.5
		C19.531,58,15,58,15,58s0-4.531,0-6.25V29.734c1.146,1.276,2.461,2.409,3.945,3.398c9.427,6.406,15.898,10.898,19.414,13.477
		c1.484,1.094,2.688,1.947,3.613,2.559c0.924,0.612,2.154,1.237,3.691,1.875C47.2,51.682,48.633,52,49.961,52H50h0.039
		c1.328,0,2.76-0.318,4.297-0.957c1.536-0.638,2.767-1.263,3.691-1.875c0.924-0.611,2.129-1.465,3.613-2.559
		c4.427-3.203,10.911-7.695,19.453-13.477C82.578,32.117,83.88,30.984,85,29.734z"/>
</g>
<rect x="15" y="61" style="fill:#004D6A;" width="70" height="21"/>
<g>
	<path style="fill:#FFFFFF;" d="M29.023,74.08c0.139,0.267,0.322,0.535,0.553,0.7c0.229,0.166,0.498,0.314,0.807,0.394
		c0.311,0.08,0.631,0.133,0.961,0.133c0.225,0,0.463-0.012,0.721-0.049c0.256-0.038,0.494-0.106,0.719-0.213
		c0.225-0.106,0.41-0.251,0.561-0.438c0.148-0.187,0.225-0.423,0.225-0.711c0-0.309-0.1-0.56-0.297-0.751s-0.455-0.352-0.775-0.479
		s-0.684-0.24-1.088-0.336c-0.406-0.096-0.816-0.203-1.232-0.32c-0.428-0.106-0.844-0.237-1.248-0.392
		c-0.406-0.155-0.768-0.354-1.088-0.6s-0.578-0.552-0.775-0.92c-0.199-0.368-0.297-0.813-0.297-1.336
		c0-0.586,0.125-1.096,0.375-1.528c0.252-0.432,0.58-0.792,0.984-1.08c0.406-0.288,0.865-0.501,1.377-0.64s1.023-0.208,1.535-0.208
		c0.598,0,1.172,0.066,1.721,0.2c0.549,0.134,1.037,0.35,1.463,0.648c0.428,0.299,0.766,0.688,1.018,1.152
		C35.49,67.768,35.615,68,35.615,69h-2.432c-0.021,0-0.094-0.632-0.217-0.856c-0.121-0.224-0.285-0.405-0.486-0.533
		c-0.203-0.128-0.436-0.22-0.697-0.274c-0.262-0.053-0.547-0.081-0.855-0.081c-0.203,0-0.406,0.021-0.607,0.063
		c-0.203,0.043-0.387,0.118-0.553,0.224s-0.301,0.24-0.408,0.399c-0.107,0.16-0.16,0.363-0.16,0.608
		c0,0.224,0.043,0.406,0.129,0.544c0.084,0.139,0.252,0.267,0.504,0.384c0.25,0.118,0.598,0.235,1.039,0.352
		c0.443,0.118,1.021,0.267,1.736,0.448c0.213,0.043,0.51,0.12,0.889,0.232c0.377,0.112,0.754,0.291,1.127,0.536
		c0.373,0.246,0.697,0.574,0.969,0.984S36,72.967,36,73.607c0,0.523-0.102,1.008-0.305,1.456c-0.203,0.448-0.504,0.835-0.904,1.16
		s-0.895,0.579-1.488,0.76c-0.592,0.181-1.277,0.272-2.055,0.272c-0.631,0-1.24-0.077-1.832-0.232
		c-0.592-0.154-1.115-0.397-1.568-0.728c-0.453-0.331-0.814-0.856-1.08-1.368C26.5,74.416,26.373,74,26.383,73h2.434
		C28.816,74,28.885,73.813,29.023,74.08z"/>
	<path style="fill:#FFFFFF;" d="M42.223,66l2.672,7h0.033l2.527-7H51v11h-2v-8h-0.393l-2.801,8h-1.936l-2.799-8H41v8h-2V66H42.223z"
		/>
	<path style="fill:#FFFFFF;" d="M54,68v-2h9v2h-4v9h-2v-9H54z"/>
	<path style="fill:#FFFFFF;" d="M70.527,66c0.715,0,1.322-0.108,1.824,0.1c0.5,0.208,0.908,0.376,1.223,0.718
		c0.314,0.342,0.545,0.678,0.689,1.115c0.143,0.438,0.215,0.864,0.215,1.333c0,0.458-0.072,0.896-0.215,1.338
		c-0.145,0.443-0.375,0.828-0.689,1.17c-0.314,0.341-0.723,0.661-1.223,0.869C71.85,72.851,71.242,73,70.527,73H68v4h-3V66H70.527z
		 M69.84,71c0.287,0,0.564-0.046,0.832-0.088c0.266-0.043,0.5-0.138,0.703-0.26s0.365-0.302,0.488-0.526s0.184-0.521,0.184-0.883
		c0-0.363-0.061-0.658-0.184-0.882c-0.123-0.224-0.285-0.398-0.488-0.521c-0.203-0.122-0.438,0.031-0.703-0.012
		C70.404,67.786,70.127,68,69.84,68H68v3H69.84z"/>
</g>
</svg>
